<?xml version="1.0" ?><!DOCTYPE svg  PUBLIC '-//W3C//DTD SVG 1.1//EN'  'http://www.w3.org/Graphics/SVG/1.1/DTD/svg11.dtd'><svg height="512px" style="enable-background:new 0 0 512 512;" version="1.1" viewBox="0 0 512 512" width="512px" xml:space="preserve" xmlns="http://www.w3.org/2000/svg" xmlns:xlink="http://www.w3.org/1999/xlink"><g id="blogger__x2C__social__x2C_media_x2C__icon"><g><path d="M310.412,293H201.243c-10.244,0-18.558,7.85-18.558,17.992    c0,9.99,8.314,18.008,18.558,18.008h109.169c10.215,0,18.457-8.018,18.457-18.008C328.869,300.865,320.627,293,310.412,293z" style="fill-rule:evenodd;clip-rule:evenodd;fill:#1A1A1A;"/><path d="M201.243,219h53.729c10.235,0,18.542-8.436,18.542-18.532    c0-10.128-8.299-18.468-18.542-18.468h-53.729c-10.244,0-18.558,8.348-18.558,18.468C182.685,210.564,190.999,219,201.243,219z" style="fill-rule:evenodd;clip-rule:evenodd;fill:#1A1A1A;"/><path d="M434.479,16H77.521C43.717,16,16,43.719,16,77.521v356.957    C16,468.282,43.717,496,77.521,496h356.957C468.286,496,496,468.282,496,434.479V77.521C496,43.719,468.286,16,434.479,16z     M408.738,248.265l-0.472,64.212C407.983,365.499,364.65,409,311.341,409H200.002C146.697,409,103,365.426,103,312.403v-65.451    v-47.215C103,146.654,146.697,103,200.002,103h67.773c25.015,3,61.427,24.39,74.885,52.794c3.671,7.97,5.615,9.199,8.685,32.824    c1.617,12.132,2.467,21.146,7.922,26.143c7.661,6.95,36.173,2.27,41.811,6.683l4.295,3.355l2.611,5.323l0.863,4.26    L408.738,248.265z" style="fill-rule:evenodd;clip-rule:evenodd;fill:#1A1A1A;"/></g></g><g id="Layer_1"/></svg>